<svg xmlns="http://www.w3.org/2000/svg" width="32" height="32" role="img" aria-label="解迹 SolvNote" viewBox="0 0 512 512"><rect width="512" height="512" rx="112" fill="#38bdf8"/><g transform="translate(256 256) scale(1.28) translate(-256 -256)"><path d="M112 132h112q32 0 32 30q0-30 32-30h112v238H292q-36 0-36 30q0-30-36-30H112Z" fill="#eff6ff"/><path d="M256 171v163" stroke="#fdba74" stroke-width="12" stroke-linecap="round"/><path d="M148 190h66m-66 42h66m-66 42h43" stroke="#0369a1" stroke-width="14" stroke-linecap="round"/><path d="m294 264 25 25 47-64" fill="none" stroke="#c2410c" stroke-width="19" stroke-linecap="round" stroke-linejoin="round"/></g><path d="m353 85 8 23 23 8-23 8-8 23-8-23-23-8 23-8Z" transform="translate(51 -62)" fill="white"/></svg>